<?xml version="1.0" encoding="UTF-8" standalone="no"?>
<!DOCTYPE svg  PUBLIC '-//W3C//DTD SVG 1.1//EN'  'http://www.w3.org/Graphics/SVG/1.1/DTD/svg11.dtd'>
<svg width="739pt" xmlns="http://www.w3.org/2000/svg" viewBox="0 0 739 739" version="1.1" height="739pt">
 <g id="#dcfb04ff" fill="#dcfb04">
  <path d="m0 0h739v739h-739v-739m488.99 294.25c3.94 3.94 7.66 8.08 11.58 12.05 39.56-39.34 79.53-78.3 118.94-117.79-4-3.77-7.56-7.97-11.52-11.77-39.71 39.13-79.31 78.36-119 117.51m-379.23 17.95c0.01 10.73-0.02 21.45 0.02 32.17-10.34-4.97-23.55-4.51-32.85 2.49-7.27 5.44-11.02 14.37-12.13 23.16-1.12 9.63-0.37 19.94 4.72 28.41 4.5 7.74 12.61 13 21.35 14.63 12.2 2.14 24.72 0.01 36.52-3.29 0.04-31.92-0.04-63.84 0.04-95.76-0.08-1.59 0.19-3.28-0.51-4.76-5.8 0.44-11.42 2.09-17.16 2.95m256.24 0.79c-8.63 4.96-11.98 15.47-11.97 24.92-0.08 23.71 0 47.42-0.04 71.13-0.22 1.26 0.26 3.17 1.93 2.93 5.14 0.12 10.28 0 15.42 0 0.7-18.3 0.1-36.65 0.3-54.97 8.1-0.19 16.23 0.38 24.29-0.28 0.71-4.7 0.73-9.77-0.02-14.46-8.07-0.62-16.21-0.08-24.31-0.26 0.13-5.6-0.35-12.83 5.07-16.24 6.13-3.53 13.44-1.24 19.58 1.05 1.21-4.83 2.37-9.69 3.33-14.58-10.7-3.83-23.33-4.93-33.58 0.76m-143.71 11.19c-0.01 18.6 0.01 37.2-0.01 55.8 0.04 6.3-0.04 12.74 1.82 18.82 1.69 5.91 6.03 11.1 11.91 13.16 10.07 3.58 21.28 2.06 30.91-2.16-0.91-4.83-1.91-9.63-2.81-14.45-3.8 0.33-7.18 2.45-11.02 2.57-3.58 0.2-7.87 0.36-10.46-2.59-2.56-3.17-2.53-7.49-2.7-11.36-0.12-8.99-0.02-17.98-0.05-26.97 7.7-0.1 15.41 0.18 23.11-0.11 0.25-0.22 0.75-0.64 1-0.85 0.2-4.35 0.21-8.71 0-13.06-0.25-0.21-0.74-0.65-0.98-0.87-7.7-0.29-15.42-0.02-23.13-0.11-0.1-6.65 0.19-13.3-0.12-19.94-0.21-0.22-0.64-0.67-0.85-0.89-5.58 0.74-11.05 2.15-16.62 3.01m-71.69 19.15c0.81 4.8 1.44 9.64 2.25 14.45 7.93-1.89 16.32-4.13 24.43-1.94 5.51 1.67 7.04 7.91 6.81 13.01-8.98-1.14-18.45-1.4-27 2.04-6.02 2.38-11.14 7.6-12.31 14.11-1.18 6.83-0.38 14.56 4.34 19.96 4.61 5.39 11.94 7.24 18.74 7.76 11.17 0.83 22.34-0.82 33.28-2.93-0.08-14.94 0.16-29.9-0.12-44.84-0.26-8.63-3.9-18.07-12.29-21.73-12.03-5.27-25.85-3.23-38.13 0.11m132.03-0.08c0.74 4.84 1.41 9.69 2.21 14.52 7.93-1.87 16.31-4.12 24.41-1.94 5.53 1.66 7.07 7.91 6.84 13.02-9.02-1.15-18.54-1.4-27.12 2.09-5.98 2.4-11.04 7.61-12.2 14.09-1.16 6.81-0.37 14.5 4.31 19.9 4.6 5.39 11.92 7.26 18.71 7.79 11.19 0.84 22.38-0.83 33.35-2.93-0.08-14.92 0.15-29.84-0.11-44.76-0.26-8.63-3.86-18.1-12.26-21.79-12.03-5.33-25.82-3.17-38.14 0.01m147.88-2.44c-11.47 2.1-20.92 11.23-24.16 22.32-3.93 13.26-2.4 28.97 6.68 39.86 10.85 12.95 32.02 14.47 45.23 4.32 11.24-8.54 14.52-23.97 12.69-37.34-1.3-9.14-5.66-18.21-13.26-23.72-7.7-5.69-17.91-7.27-27.18-5.44m127.67 4.37c-9.54 5.86-14.86 16.92-15.66 27.84-0.67 9.43 0.74 19.43 6.07 27.43 4.77 7.21 12.92 11.72 21.38 12.92 9.13 1.21 18.67 0.47 27.31-2.83-1.01-4.47-1.46-9.03-2.45-13.49-0.23-0.2-0.69-0.61-0.91-0.82-5.26 1-10.56 2.05-15.95 1.75-5.12-0.01-10.78-1.63-13.78-6.07-4.02-5.91-4.42-13.49-3.53-20.37 0.79-5.91 4-12.02 9.85-14.25 7.08-2.69 14.88-0.91 21.72 1.66 1.58-4.74 2.59-9.64 4-14.43-11.78-5.69-26.7-6.45-38.05 0.66m65.38-0.65c-10.21 6-15.74 17.92-16.11 29.48-0.54 9.78 1.13 20.28 7.42 28.12 5.73 7.3 14.98 11.08 24.09 11.61 9.22 0.59 18.73-0.58 27.3-4.18-1.07-4.84-1.16-9.89-2.9-14.57-8.43 2.82-17.7 4.12-26.44 2.03-6.49-1.55-10.69-7.62-11.54-13.99 14.95-0.07 29.89-0.01 44.84-0.03 0.73-11.07 0.27-23.29-6.7-32.49-9.2-11.85-27.52-13.33-39.96-5.98m-133.51 1.76c-0.04 21.55-0.16 43.12 0.05 64.67 0.25 0.23 0.74 0.7 0.99 0.94 5.4 0.27 10.83 0.03 16.25 0.07 0.7-18.07 0.1-36.19 0.3-54.28 7.55-1.19 15.28-0.82 22.64 1.26 1.4-5.2 2.29-10.51 3.24-15.8-14.4-3.63-29.69-2.22-43.47 3.14m-188.6 133.19c-27.67-12.45-55.43-24.69-83.14-37.06-38.03 37.6-76.07 75.19-114.13 112.76 3.91 3.95 7.72 8 11.59 12 35.47-35.06 70.94-70.1 106.41-105.15 27.77 12.35 55.53 24.7 83.28 37.06 17.12-17.11 34.45-34.01 51.6-51.09-3.87-3.95-7.59-8.06-11.48-11.99-14.77 14.43-29.34 29.06-44.13 43.47z"/>
  <path d="m630.53 358.66c5.03-5.1 14.73-5.13 19.16 0.77 2.22 2.67 2.79 6.2 3.31 9.53-9.12 0.08-18.25 0.03-27.38 0.03 0.9-3.72 2.04-7.62 4.91-10.33z"/>
  <path d="m433.36 356.53c4.8-1.16 10.47-0.66 14.15 2.96 4.65 4.46 5.89 11.25 5.95 17.43-0.07 6.22-1.3 13.04-5.95 17.55-3.66 3.65-9.36 4.17-14.17 2.99-5.23-1.5-8.64-6.49-9.94-11.54-1.55-6.02-1.56-12.49 0.14-18.47 1.38-4.85 4.79-9.51 9.82-10.92z"/>
  <path d="m90.44 358.48c6.21-2.87 13.53-1.4 19.3 1.86 0.05 12.33 0.01 24.66 0.02 36.99-6.81 0.68-14.69 2.01-20.49-2.58-6.21-4.85-7.48-13.45-6.86-20.85 0.5-5.83 2.41-12.57 8.03-15.42z"/>
  <path d="m166.58 382.5c5.48-2.25 11.6-1.48 17.33-0.92 0.07 5.62 0.08 11.25-0.01 16.88-5.58 0.39-11.4 1.28-16.84-0.44-6.77-1.86-7.01-13.17-0.48-15.52z"/>
  <path d="m298.56 382.51c5.42-2.18 11.52-1.64 17.18-0.88 0.51 5.59 0.13 11.23 0.14 16.84-5.61 0.37-11.48 1.29-16.94-0.5-6.65-1.94-6.85-13.12-0.38-15.46z"/>
 </g>
 <g id="#000000ff">
  <path d="m488.99 294.25c39.69-39.15 79.29-78.38 119-117.51 3.96 3.8 7.52 8 11.52 11.77-39.41 39.49-79.38 78.45-118.94 117.79-3.92-3.97-7.64-8.11-11.58-12.05z"/>
  <path d="m109.76 312.2c5.74-0.86 11.36-2.51 17.16-2.95 0.7 1.48 0.43 3.17 0.51 4.76-0.08 31.92 0 63.84-0.04 95.76-11.8 3.3-24.32 5.43-36.52 3.29-8.74-1.63-16.85-6.89-21.35-14.63-5.09-8.47-5.84-18.78-4.72-28.41 1.11-8.79 4.86-17.72 12.13-23.16 9.3-7 22.51-7.46 32.85-2.49-0.04-10.72-0.01-21.44-0.02-32.17m-19.32 46.28c-5.62 2.85-7.53 9.59-8.03 15.42-0.62 7.4 0.65 16 6.86 20.85 5.8 4.59 13.68 3.26 20.49 2.58-0.01-12.33 0.03-24.66-0.02-36.99-5.77-3.26-13.09-4.73-19.3-1.86z"/>
  <path d="m366 312.99c10.25-5.69 22.88-4.59 33.58-0.76-0.96 4.89-2.12 9.75-3.33 14.58-6.14-2.29-13.45-4.58-19.58-1.05-5.42 3.41-4.94 10.64-5.07 16.24 8.1 0.18 16.24-0.36 24.31 0.26 0.75 4.69 0.73 9.76 0.02 14.46-8.06 0.66-16.19 0.09-24.29 0.28-0.2 18.32 0.4 36.67-0.3 54.97-5.14 0-10.28 0.12-15.42 0-1.67 0.24-2.15-1.67-1.93-2.93 0.04-23.71-0.04-47.42 0.04-71.13-0.01-9.45 3.34-19.96 11.97-24.92z"/>
  <path d="m222.29 324.18c5.57-0.86 11.04-2.27 16.62-3.01 0.21 0.22 0.64 0.67 0.85 0.89 0.31 6.64 0.02 13.29 0.12 19.94 7.71 0.09 15.43-0.18 23.13 0.11 0.24 0.22 0.73 0.66 0.98 0.87 0.21 4.35 0.2 8.71 0 13.06-0.25 0.21-0.75 0.63-1 0.85-7.7 0.29-15.41 0.01-23.11 0.11 0.03 8.99-0.07 17.98 0.05 26.97 0.17 3.87 0.14 8.19 2.7 11.36 2.59 2.95 6.88 2.79 10.46 2.59 3.84-0.12 7.22-2.24 11.02-2.57 0.9 4.82 1.9 9.62 2.81 14.45-9.63 4.22-20.84 5.74-30.91 2.16-5.88-2.06-10.22-7.25-11.91-13.16-1.86-6.08-1.78-12.52-1.82-18.82 0.02-18.6 0-37.2 0.01-55.8z"/>
  <path d="m150.6 343.33c12.28-3.34 26.1-5.38 38.13-0.11 8.39 3.66 12.03 13.1 12.29 21.73 0.28 14.94 0.04 29.9 0.12 44.84-10.94 2.11-22.11 3.76-33.28 2.93-6.8-0.52-14.13-2.37-18.74-7.76-4.72-5.4-5.52-13.13-4.34-19.96 1.17-6.51 6.29-11.73 12.31-14.11 8.55-3.44 18.02-3.18 27-2.04 0.23-5.1-1.3-11.34-6.81-13.01-8.11-2.19-16.5 0.05-24.43 1.94-0.81-4.81-1.44-9.65-2.25-14.45m15.98 39.17c-6.53 2.35-6.29 13.66 0.48 15.52 5.44 1.72 11.26 0.83 16.84 0.44 0.09-5.63 0.08-11.26 0.01-16.88-5.73-0.56-11.85-1.33-17.33 0.92z"/>
  <path d="m282.63 343.25c12.32-3.18 26.11-5.34 38.14-0.01 8.4 3.69 12 13.16 12.26 21.79 0.26 14.92 0.03 29.84 0.11 44.76-10.97 2.1-22.16 3.77-33.35 2.93-6.79-0.53-14.11-2.4-18.71-7.79-4.68-5.4-5.47-13.09-4.31-19.9 1.16-6.48 6.22-11.69 12.2-14.09 8.58-3.49 18.1-3.24 27.12-2.09 0.23-5.11-1.31-11.36-6.84-13.02-8.1-2.18-16.48 0.07-24.41 1.94-0.8-4.83-1.47-9.68-2.21-14.52m15.93 39.26c-6.47 2.34-6.27 13.52 0.38 15.46 5.46 1.79 11.33 0.87 16.94 0.5-0.01-5.61 0.37-11.25-0.14-16.84-5.66-0.76-11.76-1.3-17.18 0.88z"/>
  <path d="m430.51 340.81c9.27-1.83 19.48-0.25 27.18 5.44 7.6 5.51 11.96 14.58 13.26 23.72 1.83 13.37-1.45 28.8-12.69 37.34-13.21 10.15-34.38 8.63-45.23-4.32-9.08-10.89-10.61-26.6-6.68-39.86 3.24-11.09 12.69-20.22 24.16-22.32m2.85 15.72c-5.03 1.41-8.44 6.07-9.82 10.92-1.7 5.98-1.69 12.45-0.14 18.47 1.3 5.05 4.71 10.04 9.94 11.54 4.81 1.18 10.51 0.66 14.17-2.99 4.65-4.51 5.88-11.33 5.95-17.55-0.06-6.18-1.3-12.97-5.95-17.43-3.68-3.62-9.35-4.12-14.15-2.96z"/>
  <path d="m558.18 345.18c11.35-7.11 26.27-6.35 38.05-0.66-1.41 4.79-2.42 9.69-4 14.43-6.84-2.57-14.64-4.35-21.72-1.66-5.85 2.23-9.06 8.34-9.85 14.25-0.89 6.88-0.49 14.46 3.53 20.37 3 4.44 8.66 6.06 13.78 6.07 5.39 0.3 10.69-0.75 15.95-1.75 0.22 0.21 0.68 0.62 0.91 0.82 0.99 4.46 1.44 9.02 2.45 13.49-8.64 3.3-18.18 4.04-27.31 2.83-8.46-1.2-16.61-5.71-21.38-12.92-5.33-8-6.74-18-6.07-27.43 0.8-10.92 6.12-21.98 15.66-27.84z"/>
  <path d="m623.56 344.53c12.44-7.35 30.76-5.87 39.96 5.98 6.97 9.2 7.43 21.42 6.7 32.49-14.95 0.02-29.89-0.04-44.84 0.03 0.85 6.37 5.05 12.44 11.54 13.99 8.74 2.09 18.01 0.79 26.44-2.03 1.74 4.68 1.83 9.73 2.9 14.57-8.57 3.6-18.08 4.77-27.3 4.18-9.11-0.53-18.36-4.31-24.09-11.61-6.29-7.84-7.96-18.34-7.42-28.12 0.37-11.56 5.9-23.48 16.11-29.48m6.97 14.13c-2.87 2.71-4.01 6.61-4.91 10.33 9.13 0 18.26 0.05 27.38-0.03-0.52-3.33-1.09-6.86-3.31-9.53-4.43-5.9-14.13-5.87-19.16-0.77z"/>
  <path d="m490.05 346.29c13.78-5.36 29.07-6.77 43.47-3.14-0.95 5.29-1.84 10.6-3.24 15.8-7.36-2.08-15.09-2.45-22.64-1.26-0.2 18.09 0.4 36.21-0.3 54.28-5.42-0.04-10.85 0.2-16.25-0.07-0.25-0.24-0.74-0.71-0.99-0.94-0.21-21.55-0.09-43.12-0.05-64.67z"/>
  <path d="m301.45 479.48c14.79-14.41 29.36-29.04 44.13-43.47 3.89 3.93 7.61 8.04 11.48 11.99-17.15 17.08-34.48 33.98-51.6 51.09-27.75-12.36-55.51-24.71-83.28-37.06-35.47 35.05-70.94 70.09-106.41 105.15-3.87-4-7.68-8.05-11.59-12 38.06-37.57 76.1-75.16 114.13-112.76 27.71 12.37 55.47 24.61 83.14 37.06z"/>
 </g>
</svg>
